<svg xmlns="http://www.w3.org/2000/svg" xmlns:xlink="http://www.w3.org/1999/xlink" viewBox="0 0 288 288"><defs><linearGradient id="a" y1="288" x2="288" gradientTransform="matrix(1, 0, 0, -1, 0, 288)" gradientUnits="userSpaceOnUse"><stop offset="0" stop-color="#e4b705"/><stop offset="0.49" stop-color="#ffe923"/><stop offset="1" stop-color="#f0d90a"/></linearGradient><linearGradient id="b" x1="77.36" y1="207.08" x2="163.26" y2="46.17" gradientTransform="matrix(1, 0, 0, -1, 0, 288)" gradientUnits="userSpaceOnUse"><stop offset="0" stop-color="#fff"/><stop offset="1" stop-color="#fff"/></linearGradient><linearGradient id="c" x1="61.75" y1="198.74" x2="147.66" y2="37.84" xlink:href="#b"/><linearGradient id="d" x1="62.12" y1="198.94" x2="148.03" y2="38.03" xlink:href="#b"/><linearGradient id="e" x1="141.65" y1="241.4" x2="227.56" y2="80.5" xlink:href="#b"/><linearGradient id="f" x1="142.19" y1="241.69" x2="228.1" y2="80.78" xlink:href="#b"/><linearGradient id="g" x1="127.72" y1="233.97" x2="213.63" y2="73.06" xlink:href="#b"/></defs><title>sertificate-gold</title><circle cx="144" cy="144" r="144" style="fill:url(#a)"/><path d="M66.08,117.32c18.32-1,57.5.25,67.65,13.39s30,54.95,38.66,74.22c-8.46-5.47-33.1-14.6-64-7.3Z" style="fill:url(#b)"/><path d="M143.4,200.06c-14.5.61-25.61,2.92-41.08,7.3L60,125.84h6l38.66,76.66C117.42,199.46,131.32,198.24,143.4,200.06Z" style="fill:url(#c)"/><path d="M61.25,136.79,54,139.22l43.49,84c13.69-5.88,45.66-17.28,64-15.82-8.26-2.84-31.9-5.84-60.41,4.87Z" style="fill:url(#d)"/><path d="M234,151.39c-10.27,5.68-34.79,22.39-50.74,43.81,3.42-9.54,16.19-32.13,39.87-46.24L184.47,71.08l6-3.65Z" style="fill:url(#e)"/><path d="M188.09,176.94c9.67-12.77,20.54-24.94,30.81-29.81L176,65l-3.62,3.65,39.87,76.66C202,153.82,196.55,160.52,188.09,176.94Z" style="fill:url(#f)"/><path d="M165.14,66.22c-8.86,9.53-26.82,35.28-27.78,62.05L176,202.5c2.42-13.39,12.08-43.56,31.41-57.19Z" style="fill:url(#g)"/><path d="M269,144A125,125,0,1,1,144,19,125,125,0,0,1,269,144ZM144,265A121,121,0,1,0,23,144,121,121,0,0,0,144,265Z" style="fill:#fff"/></svg>