<svg xmlns="http://www.w3.org/2000/svg" viewBox="0 0 437.01 217"><path d="M339,197l-5.2-9h10.4Z" style="fill:#df701e"/><path d="M391,177l-5.2-9h10.4Z" style="fill:#df701e"/><path d="M339,157l-5.2-9h10.4Z" style="fill:#df701e"/><path d="M391,137l-5.2-9h10.4Z" style="fill:#df701e"/><path d="M350,217l-5.2-9h10.4Z" style="fill:#df701e"/><path d="M402,197l-5.2-9h10.4Z" style="fill:#df701e"/><path d="M350,177l-5.2-9h10.4Z" style="fill:#df701e"/><path d="M402,157l-5.2-9h10.4Z" style="fill:#df701e"/><path d="M359,197l-5.2-9h10.4Z" style="fill:#df701e"/><path d="M411,177l-5.2-9h10.4Z" style="fill:#df701e"/><path d="M359,157l-5.2-9h10.4Z" style="fill:#df701e"/><path d="M411,137l-5.2-9h10.4Z" style="fill:#df701e"/><path d="M379,197l-5.2-9h10.4Z" style="fill:#df701e"/><path d="M431,177l-5.2-9h10.4Z" style="fill:#df701e"/><path d="M379,157l-5.2-9h10.4Z" style="fill:#df701e"/><path d="M431,137l-5.2-9h10.4Z" style="fill:#df701e"/><path d="M370,217l-5.2-9h10.4Z" style="fill:#df701e"/><path d="M422,197l-5.2-9h10.4Z" style="fill:#df701e"/><path d="M370,177l-5.2-9h10.4Z" style="fill:#df701e"/><path d="M422,157l-5.2-9h10.4Z" style="fill:#df701e"/><polygon points="16.84 0 12.6 0 113.6 101 117.84 101 16.84 0" style="fill:#df701e"/><polygon points="46.52 0 42.28 0 143.28 101 147.52 101 46.52 0" style="fill:#df701e"/><polygon points="76.19 0 71.95 0 172.95 101 177.19 101 76.19 0" style="fill:#df701e"/><polygon points="105.87 0 101.63 0 202.63 101 206.87 101 105.87 0" style="fill:#df701e"/><polygon points="135.54 0 131.3 0 232.3 101 236.54 101 135.54 0" style="fill:#df701e"/><polygon points="165.22 0 160.97 0 261.98 101 266.22 101 165.22 0" style="fill:#df701e"/><polygon points="194.89 0 190.65 0 291.65 101 295.89 101 194.89 0" style="fill:#df701e"/><polygon points="224.57 0 220.32 0 321.32 101 325.57 101 224.57 0" style="fill:#df701e"/><polygon points="254.24 0 250 0 351 101 355.24 101 254.24 0" style="fill:#df701e"/><polygon points="283.92 0 279.67 0 380.67 101 384.92 101 283.92 0" style="fill:#df701e"/><polygon points="313.59 0 309.35 0 410.35 101 414.59 101 313.59 0" style="fill:#df701e"/><polygon points="24.58 101 28.82 101 0 72.18 0 76.42 24.58 101" style="fill:#df701e"/><polygon points="54.25 101 58.5 101 0 42.5 0 46.75 54.25 101" style="fill:#df701e"/><polygon points="83.93 101 88.17 101 0 12.83 0 17.07 83.93 101" style="fill:#df701e"/><polygon points="343.27 0 339.02 0 437 97.98 437 93.74 343.27 0" style="fill:#df701e"/><polygon points="372.94 0 368.7 0 437 68.31 437 64.06 372.94 0" style="fill:#df701e"/><polygon points="402.62 0 398.37 0 437 38.63 437 34.39 402.62 0" style="fill:#df701e"/><polygon points="432.29 0 428.05 0 437 8.96 437 4.71 432.29 0" style="fill:#df701e"/></svg>