<svg xmlns="http://www.w3.org/2000/svg" viewBox="0 0 639.28 206"><path d="M75.27,2H73.85l-.47,1.34-69.27,198L3.18,204H36.6l.46-1.34,69.27-198L107.26,2h-32ZM224.33,152.08h2V120.34H202.4V92.8H166.29v27.54H132.75L194.68,35l2.3-3.17H156.37l-.6.81L86.5,126l-.4.53v25.57h79.14V183H202.4v-30.9Zm16.34-2.84v0h0c5.6,11.64,13.32,20.64,23.19,26.88s21.08,9.35,33.61,9.35,23.74-3.1,33.6-9.35,17.53-15.24,23-26.9q8.42-17.72,8.38-41.84t-8.38-41.63C348.61,54,341,44.93,331.08,38.67a61.53,61.53,0,0,0-33.6-9.35q-18.8,0-33.61,9.35t-23.2,27.11h0q-8.21,17.5-8.17,41.62T240.67,149.24ZM316.81,142h0c-4.68,7.16-11.06,10.66-19.31,10.66S283,149.22,278.15,142s-7.22-18.65-7.22-34.63,2.51-27.4,7.22-34.62,11.22-10.67,19.33-10.67,14.63,3.49,19.31,10.66h0c4.84,7.21,7.42,18.64,7.42,34.61S321.65,134.82,316.81,142Zm194.71,10.05h2V120.34H489.59V92.8H453.48v27.54H419.94L481.86,35l2.31-3.17H443.55l-.6.81L373.68,126l-.39.53v25.57h79.13V183h37.17v-30.9ZM581,2h-1.42l-.47,1.34-69.27,198-.93,2.66H542.3l.47-1.34L612,4.66,613,2H581Z" transform="translate(-0.36)" style="fill:none;stroke:#fff;stroke-width:4px"/><path d="M87.19,2H85.78l-.47,1.34L16,201.34,15.11,204H48.52l.47-1.34,69.27-198L119.19,2h-32ZM236.26,152.08h2V120.34H214.33V92.8H178.21v27.54H144.68L206.6,35l2.31-3.17H168.29l-.6.81L98.42,126l-.39.53v25.57h79.13V183h37.17v-30.9Zm16.33-2.84v0h0c5.6,11.64,13.33,20.64,23.2,26.88s21.08,9.35,33.6,9.35,23.75-3.1,33.61-9.35,17.53-15.24,23-26.9c5.61-11.81,8.37-25.78,8.37-41.84S371.61,77.46,366,65.78C360.54,54,352.88,44.93,343,38.67a65.07,65.07,0,0,0-67.21,0Q261,48.06,252.6,65.78h0q-8.21,17.5-8.17,41.62T252.59,149.24ZM328.73,142h0c-4.68,7.16-11.06,10.66-19.32,10.66-8.1,0-14.49-3.49-19.32-10.67s-7.22-18.65-7.22-34.63,2.5-27.4,7.22-34.62S301.3,62.12,309.4,62.12c8.26,0,14.64,3.49,19.32,10.66h0c4.85,7.21,7.43,18.64,7.43,34.61S333.58,134.82,328.73,142Zm194.72,10.05h2V120.34H501.52V92.8H465.4v27.54H431.86L493.79,35l2.3-3.17H455.48l-.6.81L385.61,126l-.39.53v25.57h79.13V183h37.17v-30.9ZM592.9,2h-1.42L591,3.34l-69.27,198-.93,2.66h33.41l.47-1.34L624,4.66,624.89,2h-32Z" transform="translate(-0.36)" style="fill:none;stroke:#fff;stroke-width:4px;opacity:0.25;isolation:isolate"/><path d="M99.12,2H97.7l-.47,1.34L28,201.34,27,204H60.45l.47-1.34,69.27-198L131.12,2h-32ZM248.19,152.08h2V120.34H226.26V92.8H190.14v27.54H156.6L218.53,35l2.3-3.17H180.22l-.6.81L110.35,126l-.39.53v25.57h79.13V183h37.17v-30.9Zm16.33-2.84v0h0c5.6,11.64,13.33,20.64,23.19,26.88s21.09,9.35,33.61,9.35,23.74-3.1,33.6-9.35,17.53-15.24,23-26.9c5.62-11.81,8.38-25.78,8.38-41.84s-2.76-29.95-8.38-41.63c-5.45-11.78-13.11-20.85-23-27.11a65.07,65.07,0,0,0-67.21,0q-14.81,9.39-23.19,27.11h0c-5.47,11.67-8.16,25.57-8.16,41.62S259.05,137.43,264.52,149.24ZM340.66,142h0c-4.69,7.16-11.06,10.66-19.32,10.66-8.1,0-14.5-3.49-19.32-10.67s-7.23-18.65-7.23-34.63S297.29,80,302,72.79s11.21-10.67,19.32-10.67c8.26,0,14.63,3.49,19.32,10.66h0c4.85,7.21,7.43,18.64,7.43,34.61S345.51,134.82,340.66,142Zm194.71,10.05h2V120.34H513.44V92.8H477.33v27.54H443.79L505.72,35l2.3-3.17H467.41l-.6.81L397.54,126l-.4.53v25.57h79.14V183h37.16v-30.9ZM604.83,2h-1.42l-.47,1.34-69.27,198-.93,2.66h33.41l.47-1.34,69.27-198L636.82,2h-32Z" transform="translate(-0.36)" style="fill:none;stroke:#fff;stroke-width:4px;opacity:0.15000000596046448;isolation:isolate"/></svg>