<svg xmlns="http://www.w3.org/2000/svg" xmlns:xlink="http://www.w3.org/1999/xlink" viewBox="0 0 288 288"><defs><linearGradient id="a" y1="288" x2="288" gradientTransform="matrix(1, 0, 0, -1, 0, 288)" gradientUnits="userSpaceOnUse"><stop offset="0" stop-color="#121212"/><stop offset="0.49" stop-color="#484847"/><stop offset="1" stop-color="#8b8b88"/></linearGradient><linearGradient id="b" x1="46" y1="266" x2="296" y2="16" gradientTransform="matrix(0, -1, -1, 0, 284, 316)" gradientUnits="userSpaceOnUse"><stop offset="0" stop-color="#111"/><stop offset="0.49" stop-color="#545452"/><stop offset="1" stop-color="#858483"/></linearGradient><linearGradient id="c" x1="78.36" y1="208.08" x2="164.26" y2="47.17" gradientTransform="matrix(1, 0, 0, -1, 0, 288)" gradientUnits="userSpaceOnUse"><stop offset="0" stop-color="#fff"/><stop offset="1" stop-color="#fff"/></linearGradient><linearGradient id="d" x1="62.75" y1="199.74" x2="148.66" y2="38.84" xlink:href="#c"/><linearGradient id="e" x1="63.12" y1="199.94" x2="149.03" y2="39.03" xlink:href="#c"/><linearGradient id="f" x1="142.65" y1="242.4" x2="228.56" y2="81.5" xlink:href="#c"/><linearGradient id="g" x1="143.19" y1="242.69" x2="229.1" y2="81.78" xlink:href="#c"/><linearGradient id="h" x1="128.72" y1="234.97" x2="214.63" y2="74.06" xlink:href="#c"/></defs><title>sertificate-platinum</title><circle cx="144" cy="144" r="144" style="fill:url(#a)"/><circle cx="143" cy="145" r="125"/><circle cx="143" cy="145" r="125" style="fill:url(#b)"/><path d="M67.08,116.32c18.32-1,57.5.25,67.65,13.39s30,54.95,38.66,74.22c-8.46-5.47-33.1-14.6-64-7.3Z" style="fill:url(#c)"/><path d="M144.4,199.06c-14.5.61-25.61,2.92-41.08,7.3L61,124.84h6l38.66,76.66C118.42,198.46,132.32,197.24,144.4,199.06Z" style="fill:url(#d)"/><path d="M62.25,135.79,55,138.22l43.49,84c13.69-5.88,45.66-17.28,64-15.82-8.26-2.84-31.9-5.84-60.41,4.87Z" style="fill:url(#e)"/><path d="M235,150.39c-10.27,5.68-34.79,22.39-50.74,43.81,3.42-9.54,16.19-32.13,39.87-46.24L185.47,70.08l6-3.65Z" style="fill:url(#f)"/><path d="M189.09,175.94c9.67-12.77,20.54-24.94,30.81-29.81L177,64l-3.62,3.65,39.87,76.66C203,152.82,197.55,159.52,189.09,175.94Z" style="fill:url(#g)"/><path d="M166.14,65.22c-8.86,9.53-26.82,35.28-27.78,62.05L177,201.5c2.42-13.39,12.08-43.56,31.41-57.19Z" style="fill:url(#h)"/><path d="M269,144A125,125,0,1,1,144,19,125,125,0,0,1,269,144ZM144,265A121,121,0,1,0,23,144,121,121,0,0,0,144,265Z" style="fill:#fff"/></svg>