<svg xmlns="http://www.w3.org/2000/svg" xmlns:xlink="http://www.w3.org/1999/xlink" style="display:none"><symbol id="account-icon"><path d="M10 17.2A7.23 7.23 0 014 14c0-2 4-3.1 6-3.1s6 1.1 6 3.1a7.22 7.22 0 01-6 3.2zM10 3a3 3 0 11-2.12.88A3 3 0 0110 3zm0-3a10.1 10.1 0 00-3.83.76 10 10 0 000 18.48A10.1 10.1 0 0010 20a10 10 0 000-20z"/></symbol><symbol id="arrow-down-icon"><path d="M0 1.39L7 8l7-6.61L12.52 0 7 5.21 1.48 0 0 1.39z"/></symbol><symbol id="arrow-left-icon"><path d="M6.61 14L0 7l6.61-7L8 1.48 2.79 7 8 12.52 6.61 14z"/></symbol><symbol id="arrow-right-icon"><path d="M1.39 14L8 7 1.39 0 0 1.48 5.21 7 0 12.52 1.39 14z"/></symbol><symbol id="arrow-up-icon"><path d="M14 6.61L7 0 0 6.61 1.48 8 7 2.79 12.52 8 14 6.61z"/></symbol><symbol id="arrows-double-icon"><path d="M4.5 17L0 12.24l1.35-1.42 3.15 3.32 3.15-3.32L9 12.24 4.5 17zM7.65 6.18L4.5 2.86 1.35 6.18 0 4.75 4.5 0 9 4.75 7.65 6.18z"/></symbol><symbol id="asterisk-icon"><path d="M2.82 7h1.36l-.12-2.56 2.25 1.39L7 4.67 4.61 3.5 7 2.33l-.69-1.16-2.25 1.39L4.18 0H2.82l.12 2.56L.69 1.17 0 2.33 2.39 3.5 0 4.67l.69 1.16 2.25-1.39z"/></symbol><symbol id="burger-icon"><path d="M.04 0h20v2h-20zM0 7.04h20v2H0zM0 14.04h20v2H0z"/></symbol><symbol id="calendar-icon"><path d="M8 10.8v2.4H5.33v-2.4zm5.33 0v2.4h-2.66v-2.4zm5.34 0v2.4H16v-2.4zm2.66-8.4a2.83 2.83 0 011.89.7A2.28 2.28 0 0124 4.8v16.8a2.28 2.28 0 01-.78 1.7 2.83 2.83 0 01-1.89.7H2.67a2.83 2.83 0 01-1.89-.7A2.28 2.28 0 010 21.6V4.8a2.28 2.28 0 01.78-1.7 2.83 2.83 0 011.89-.7H4V0h2.67v2.4h10.66V0H20v2.4zm0 19.2V8.4H2.67v13.2zM8 15.6V18H5.33v-2.4zm5.33 0V18h-2.66v-2.4zm5.34 0V18H16v-2.4z" fill="#0d7b33"/></symbol><symbol id="clock-icon"><path d="M12 0a12 12 0 00-4.59.91 12.23 12.23 0 00-3.9 2.6 12 12 0 000 17 12.23 12.23 0 003.9 2.6 12 12 0 0015.68-15.7 12 12 0 00-6.5-6.5A12 12 0 0012 0zm5 17l-6.2-3.8V6h1.8v6.24l5.4 3.24z" fill="#0d7b33"/></symbol><symbol id="close-icon"><path d="M10 0a10 10 0 1010 10A10 10 0 0010 0zm5.59 14.41l-1.18 1.18L10 11.17l-4.41 4.42-1.18-1.18L8.83 10 4.41 5.59l1.18-1.18L10 8.83l4.41-4.42 1.18 1.18L11.17 10z"/></symbol><symbol id="doc-icon"><path d="M9 7h5.5L9 1.5zM2 0h8l6 6v12a2 2 0 01-2 2H2a2 2 0 01-1.41-.59A2 2 0 010 18V2a2 2 0 012-2zm9 16v-2H2v2zm3-4v-2H2v2z"/></symbol><symbol id="edit-icon"><path d="M17.69 4.28a1.06 1.06 0 000-1.49L15.21.31a1.06 1.06 0 00-1.49 0l-2.07 2.07 4 4zm-3.13 3.13l-4-4L0 14v4h4z"/></symbol><symbol id="email-icon"><path d="M2.32 0h16.36C20.22 0 21 .74 21 2.24v10.52A2 2 0 0118.68 15H2.32A2 2 0 010 12.76V2.24C0 .74.78 0 2.32 0zm8.17 10.75l8.32-6.91A1 1 0 0019 2.5a1 1 0 00-1.45-.21L10.49 8l-7-5.66A1 1 0 002 2.5a1 1 0 00.17 1.34z"/></symbol><symbol id="facebook-icon"><path d="M6.47 10.59h3.06L10 7.06H6.47v-2c0-1.06.24-1.77 1.77-1.77H10V.12C9.65.12 8.82 0 7.53 0 4.82 0 2.94 1.65 2.94 4.71v2.35H0v3.53h2.94V20h3.53z"/></symbol><symbol id="globe-icon"><path d="M10 0a10 10 0 1010 10A10 10 0 0010 0zm6.93 6H14a15.73 15.73 0 00-1.38-3.56A8 8 0 0116.92 6zM10 2a14.09 14.09 0 011.91 4H8.09A14.09 14.09 0 0110 2zM2.26 12A8.24 8.24 0 012 10a8.24 8.24 0 01.26-2h3.38a16.52 16.52 0 00-.14 2 16.52 16.52 0 00.14 2zm.82 2H6a15.65 15.65 0 001.38 3.56A8 8 0 013.08 14zM6 6H3.08a8 8 0 014.33-3.56A15.73 15.73 0 006 6zm4 12a14.09 14.09 0 01-1.91-4h3.82A14.09 14.09 0 0110 18zm2.34-6H7.66a14.71 14.71 0 01-.16-2 14.58 14.58 0 01.16-2h4.68a14.58 14.58 0 01.16 2 14.71 14.71 0 01-.16 2zm.25 5.56A15.65 15.65 0 0014 14h3a8 8 0 01-4.41 3.56zM14.36 12a16.52 16.52 0 00.14-2 16.52 16.52 0 00-.14-2h3.38a8.24 8.24 0 01.26 2 8.24 8.24 0 01-.26 2z"/></symbol><symbol id="info-icon"><path d="M13.2 8.4h-2.4V6h2.4zm0 9.6h-2.4v-7.2h2.4zM12 0a12 12 0 00-4.59.91 12.23 12.23 0 00-3.9 2.6 12 12 0 000 17 12.23 12.23 0 003.9 2.6 12 12 0 0015.68-15.7 12 12 0 00-6.5-6.5A12 12 0 0012 0z" fill="#0d7b33"/></symbol><symbol id="instagram-icon"><path d="M10 0C7.28 0 6.94 0 5.88.06a7.59 7.59 0 00-2.43.46 5 5 0 00-1.77 1.16A5 5 0 00.52 3.45a7.59 7.59 0 00-.46 2.43C0 6.94 0 7.28 0 10s0 3.06.06 4.12a7.59 7.59 0 00.46 2.43 5 5 0 001.16 1.77 5 5 0 001.77 1.16 7.59 7.59 0 002.43.46C6.94 20 7.28 20 10 20s3.06 0 4.12-.06a7.59 7.59 0 002.43-.46 5.19 5.19 0 002.93-2.93 7.59 7.59 0 00.46-2.43c0-1.06.06-1.4.06-4.12s0-3.06-.06-4.12a7.59 7.59 0 00-.46-2.43 5 5 0 00-1.16-1.77A5 5 0 0016.55.52a7.59 7.59 0 00-2.43-.46C13.06 0 12.72 0 10 0zm0 1.8c2.67 0 3 0 4 .06a5.61 5.61 0 011.86.34 3.33 3.33 0 011.9 1.9 5.61 5.61 0 01.38 1.9c.05 1 .06 1.37.06 4s0 3-.06 4a5.89 5.89 0 01-.34 1.86 3.14 3.14 0 01-.75 1.15 3.27 3.27 0 01-1.15.75 5.61 5.61 0 01-1.86.34c-1 .05-1.37.06-4 .06s-3 0-4-.06a5.89 5.89 0 01-1.94-.3 3.14 3.14 0 01-1.1-.75 3.14 3.14 0 01-.8-1.15 5.61 5.61 0 01-.34-1.9c-.05-1-.06-1.37-.06-4s0-3 .06-4a5.61 5.61 0 01.34-1.9 3.33 3.33 0 011.9-1.9A5.61 5.61 0 016 1.86c1-.05 1.33-.06 4-.06zm0 11.53a3.31 3.31 0 112.36-1 3.37 3.37 0 01-2.36 1zm0-8.47a5.18 5.18 0 00-2 .4A5.13 5.13 0 005.26 8a5.05 5.05 0 000 3.94A5.13 5.13 0 008 14.74a5.14 5.14 0 102-9.88zm6.54-.2a1.18 1.18 0 01-.09.46 1.16 1.16 0 01-.26.39 1.27 1.27 0 01-.39.26 1.22 1.22 0 01-.46.09 1.18 1.18 0 01-.46-.09 1.2 1.2 0 01-.65-.65 1.21 1.21 0 01.26-1.31 1.21 1.21 0 01.85-.35 1.2 1.2 0 011.2 1.2z"/></symbol><symbol id="kdk-logo" viewBox="0 0 66 64"><path d="M42 64l-.47-.09C32 61.37 18 50.56 18 40.79V5.92L42 0l24 5.92v34.87c0 9.77-14 20.58-23.53 23.12zM21.76 8.83v32c0 7 11.49 16.73 20.24 19.36 8.85-2.63 20.24-12.41 20.24-19.36v-32L42 3.85z" style="isolation:isolate" opacity=".5"/><path d="M4.3 24.31c6.51-.36 20.44.09 24.05 4.76S39 48.64 42.09 55.5c-3-2-11.77-5.2-22.76-2.6z"/><path d="M31.79 53.77a58.46 58.46 0 00-14.61 2.6l-15-29H4.3L18 54.64a37 37 0 0113.79-.87z"/><path d="M2.58 31.24L0 32.11 15.46 62c4.87-2.09 16.24-6.15 22.77-5.63-2.94-1-11.34-2.08-21.48 1.73zM64 36.44c-3.65 2-12.37 8-18 15.6a35.26 35.26 0 0114.13-16.47L46.39 7.85l2.15-1.3z"/><path d="M47.68 45.54c3.43-4.55 7.3-8.88 11-10.62L43.38 5.68 42.09 7l14.18 27.27c-3.65 3.04-5.59 5.42-8.59 11.27z"/><path d="M39.52 6.11c-3.15 3.4-9.54 12.57-9.88 22.1l13.74 26.43c.86-4.77 4.3-15.51 11.17-20.37z"/></symbol><symbol id="lens-icon"><path d="M15.48 14.11a8.73 8.73 0 10-1.37 1.37L18.63 20 20 18.63zm-6.79 1.34a6.76 6.76 0 116.76-6.76 6.76 6.76 0 01-6.76 6.76z"/><path d="M9.66 4.83H7.73v2.9h-2.9v1.93h2.9v2.9h1.93v-2.9h2.9V7.73h-2.9v-2.9z"/></symbol><symbol id="linkedin-icon"><path d="M3.76 18V5.86H.21V18zM2 4.2a2 2 0 002-2.09A2 2 0 002 0a2 2 0 00-2 2.1 2 2 0 002 2.09zM6 18h3.93v-6.55a2.51 2.51 0 01.13-.95 2.16 2.16 0 012-1.43c1.43 0 2 1.08 2 2.65V18H18v-6.73C18 7.67 16.06 6 13.47 6A3.91 3.91 0 009.9 8V6.27H6V18z"/></symbol><symbol id="map-marker-icon"><path d="M9 12.35a3.19 3.19 0 01-2.27-.95 3.28 3.28 0 010-4.6 3.19 3.19 0 014.54 0 3.3 3.3 0 01.7 3.54 3.22 3.22 0 01-1.74 1.76 3.08 3.08 0 01-1.23.25zM9 0a8.91 8.91 0 00-6.36 2.67A9.13 9.13 0 000 9.1C0 15.92 9 26 9 26s9-10.08 9-16.9a9.13 9.13 0 00-2.64-6.43A8.91 8.91 0 009 0z" fill="#0d7b33"/></symbol><symbol id="messenger-icon"><path d="M9 0C4 0 0 3.73 0 8.33a8.09 8.09 0 003.34 6.48V18l3.08-1.69a9.46 9.46 0 002.58.35c5 0 9-3.73 9-8.33S14 0 9 0zm1 11.17L7.62 8.78l-4.48 2.45 4.91-5.16 2.33 2.39L14.86 6z"/></symbol><symbol id="phone-icon"><path d="M3.62 7.79a15.1 15.1 0 006.59 6.59l2.2-2.2a1 1 0 011-.25 11.36 11.36 0 003.59.57 1 1 0 011 1V17a1 1 0 01-1 1A17 17 0 010 1 1 1 0 01.29.29 1 1 0 011 0h3.5a1 1 0 01.71.29A1 1 0 015.5 1a11.36 11.36 0 00.57 3.57 1 1 0 01-.25 1z"/></symbol><symbol id="pin-icon"><path d="M10 4a3 3 0 00-3 3 3 3 0 003 3 3 3 0 003-3 3 3 0 00-3-3zm0 4a.94.94 0 01-1-1 .94.94 0 011-1 .94.94 0 011 1 .94.94 0 01-1 1z"/><path d="M15.6 12.6A18.39 18.39 0 0017 7a6.92 6.92 0 00-7-7 6.74 6.74 0 00-7 7.1 19.4 19.4 0 001.5 5.5C1.6 13.3 0 14.5 0 16c0 2.7 5.2 4 10 4s10-1.3 10-4c0-1.5-1.5-2.7-4.4-3.4zM2 16c0-.2.8-1 3.3-1.5a22 22 0 002.3 3.4C3.9 17.5 2 16.4 2 16zm3-9.1A4.81 4.81 0 0110 2a4.89 4.89 0 015 4.9c-.2 2.2-1.1 6.2-5 10.6A18.87 18.87 0 015 6.9zm7.4 11a20 20 0 002.3-3.4c2.5.5 3.3 1.3 3.3 1.5 0 .4-1.9 1.5-5.6 1.9z"/></symbol><symbol id="quote-icon"><path d="M0 0v32h32V0zm13.37 18.38A15.08 15.08 0 018.14 23l-.54-1a9.4 9.4 0 003.4-3.85 6.16 6.16 0 00.56-1.5 3.51 3.51 0 01-.72.07 3.87 3.87 0 113.73-4.89 4.59 4.59 0 01.26 1.6 8.17 8.17 0 01-1.46 4.95zm10.12 0A15 15 0 0118.27 23l-.54-1a9.47 9.47 0 003.44-3.85 5.75 5.75 0 00.55-1.5 3.51 3.51 0 01-.72.07 3.87 3.87 0 113.74-4.89 4.59 4.59 0 01.26 1.6 8.12 8.12 0 01-1.51 4.95z"/></symbol><symbol id="search-icon"><path d="M20.07 18.7l-4.52-4.52a8.73 8.73 0 10-1.37 1.37l4.52 4.52zM2 8.76a6.76 6.76 0 116.76 6.76A6.76 6.76 0 012 8.76z"/></symbol><symbol id="telegram-icon"><path d="M18.65.11L.93 6.62C-.28 7.09-.27 7.73.71 8l4.55 1.37L15.78 3c.5-.29 1-.14.58.18l-8.52 7.38L7.52 15a1.18 1.18 0 00.92-.44l2.21-2.05 4.6 3.24c.84.45 1.45.22 1.66-.75l3-13.56c.33-1.15-.45-1.68-1.26-1.33z"/></symbol><symbol id="verified-icon"><path d="M12 0L0 5.27v7.91C0 20.5 5.12 27.34 12 29c6.88-1.66 12-8.5 12-15.82V5.27zM9.33 21.09L4 15.82 5.88 14l3.45 3.4 8.79-8.69L20 10.55z"/></symbol><symbol id="viber-icon"><path d="M15.57 7.55a5.51 5.51 0 00-5-5.18h-.18a1.84 1.84 0 00-.41 0 .7.7 0 00-.76.61.7.7 0 00.11.56 1.12 1.12 0 00.78.33h.21c2.47.54 3.3 1.38 3.71 3.77v.21c0 .28.05.87.71.87H15c.61-.09.59-.63.59-.89a.59.59 0 010-.19zM16.31 13.06l-.26-.19c-.44-.35-.91-.67-1.37-1l-.28-.19a2.88 2.88 0 00-1.61-.59 2.08 2.08 0 00-1.73 1.06.91.91 0 01-.79.47 1.51 1.51 0 01-.63-.16 7.51 7.51 0 01-4-3.79A1.22 1.22 0 016 6.91a1.81 1.81 0 001-1.58C7 4.34 4.75 1.34 3.8 1a1.94 1.94 0 00-1.26 0A3.64 3.64 0 00.27 2.82a3.28 3.28 0 000 2.72 22.06 22.06 0 004.95 7.34 24.21 24.21 0 007.51 4.86 3.94 3.94 0 00.75.21h.26a4.26 4.26 0 003.54-2.62c.5-1.17-.28-1.78-.97-2.27z"/><path d="M18 8.1v-.19A8.15 8.15 0 0010.24 0h-.46A.73.73 0 009 .74c0 .63.59.67.9.7h.2c4 .61 5.92 2.48 6.44 6.47a1.62 1.62 0 010 .23c0 .32 0 1 .73 1a.72.72 0 00.53-.2 1 1 0 00.2-.84zM10.47 4.67a.86.86 0 00-.89.51.62.62 0 000 .58.92.92 0 00.69.35 1.59 1.59 0 011.49 1.57.75.75 0 00.72.73h.09c.46-.05.68-.38.66-1a2.78 2.78 0 00-.89-1.89 2.71 2.71 0 00-1.87-.85z"/></symbol><symbol id="whatsapp-icon"><path d="M10.63 18.75a9.33 9.33 0 01-4.56-1.17L0 20l2.42-6.07A9.41 9.41 0 012 5.73a9.24 9.24 0 015-5 9.35 9.35 0 017.29 0 9.24 9.24 0 015 5 9.35 9.35 0 010 7.29 9.24 9.24 0 01-5 5 9.22 9.22 0 01-3.66.73zm3.12-7.5H12.5l-.7.63a5.52 5.52 0 01-2.16-1.52A5.37 5.37 0 018.13 8.2l.62-.7V6.25a1.17 1.17 0 00-.23-.66A1.46 1.46 0 008 5.11c-.19-.1-.32-.11-.4 0L6.68 6c-.51.5-.58 1.29-.22 2.37a8 8 0 002.05 3.12 8 8 0 003.12 2c1.08.36 1.87.29 2.37-.22l.92-.92c.08-.08.07-.21 0-.4a1.46 1.46 0 00-.48-.52 1.17 1.17 0 00-.69-.18z"/></symbol><symbol id="youtube-icon"><path d="M19.59 2.2A2.45 2.45 0 0017.83.44C16.27 0 10 0 10 0S3.75 0 2.18.4a2.57 2.57 0 00-1.11.66 2.49 2.49 0 00-.65 1.12A25.87 25.87 0 000 7a26.43 26.43 0 00.41 4.8 2.48 2.48 0 001.76 1.76C3.75 14 10 14 10 14s6.26 0 7.83-.4a2.55 2.55 0 001.1-.6 2.46 2.46 0 00.65-1.11A25.93 25.93 0 0020 7a24.93 24.93 0 00-.41-4.8zM8 10V4l5.2 3z"/></symbol></svg>