<svg xmlns="http://www.w3.org/2000/svg" viewBox="0 0 309.01 201"><path d="M117,30a61,61,0,1,0,61,61A61,61,0,0,0,117,30Zm0,114.38A53.38,53.38,0,1,1,170.38,91,53.37,53.37,0,0,1,117,144.38Z" transform="translate(-2.18)" style="fill:#c986e9"/><path d="M214,181l-5.2-9h10.4Z" transform="translate(-2.18)" style="fill:#920bd1"/><path d="M266,161l-5.2-9h10.4Z" transform="translate(-2.18)" style="fill:#920bd1"/><path d="M214,141l-5.2-9h10.4Z" transform="translate(-2.18)" style="fill:#920bd1"/><path d="M266,121l-5.2-9h10.4Z" transform="translate(-2.18)" style="fill:#920bd1"/><path d="M225,201l-5.2-9h10.4Z" transform="translate(-2.18)" style="fill:#920bd1"/><path d="M277,181l-5.2-9h10.4Z" transform="translate(-2.18)" style="fill:#920bd1"/><path d="M225,161l-5.2-9h10.4Z" transform="translate(-2.18)" style="fill:#920bd1"/><path d="M277,141l-5.2-9h10.4Z" transform="translate(-2.18)" style="fill:#920bd1"/><path d="M234,181l-5.2-9h10.4Z" transform="translate(-2.18)" style="fill:#920bd1"/><path d="M286,161l-5.2-9h10.4Z" transform="translate(-2.18)" style="fill:#920bd1"/><path d="M234,141l-5.2-9h10.4Z" transform="translate(-2.18)" style="fill:#920bd1"/><path d="M286,121l-5.2-9h10.4Z" transform="translate(-2.18)" style="fill:#920bd1"/><path d="M254,181l-5.2-9h10.4Z" transform="translate(-2.18)" style="fill:#920bd1"/><path d="M306,161l-5.2-9h10.4Z" transform="translate(-2.18)" style="fill:#920bd1"/><path d="M254,141l-5.2-9h10.4Z" transform="translate(-2.18)" style="fill:#920bd1"/><path d="M306,121l-5.2-9h10.4Z" transform="translate(-2.18)" style="fill:#920bd1"/><path d="M245,201l-5.2-9h10.4Z" transform="translate(-2.18)" style="fill:#920bd1"/><path d="M297,181l-5.2-9h10.4Z" transform="translate(-2.18)" style="fill:#920bd1"/><path d="M245,161l-5.2-9h10.4Z" transform="translate(-2.18)" style="fill:#920bd1"/><path d="M297,141l-5.2-9h10.4Z" transform="translate(-2.18)" style="fill:#920bd1"/><ellipse cx="69.82" cy="70" rx="69.82" ry="70" style="fill:#fff"/><path d="M72,0a70,70,0,1,0,69.82,70A69.91,69.91,0,0,0,72,0Zm0,131.25A61.25,61.25,0,1,1,133.09,70,61.17,61.17,0,0,1,72,131.25Z" transform="translate(-2.18)" style="fill:#920bd1"/><path d="M111.27,70a39.31,39.31,0,1,1-11-27.29L67.64,76.1,53.51,61.72l-7.69,7.86,21.82,22.3,39.2-40.06A39.27,39.27,0,0,1,111.27,70Z" transform="translate(-2.18)" style="fill:#920bd1;opacity:0.5;isolation:isolate"/></svg>