<svg xmlns="http://www.w3.org/2000/svg" width="24" height="24" viewBox="0 0 24 24"><path d="M8,10.8v2.4H5.33V10.8Zm5.33,0v2.4H10.67V10.8Zm5.34,0v2.4H16V10.8Zm2.66-8.4a2.83,2.83,0,0,1,1.89.7A2.28,2.28,0,0,1,24,4.8V21.6a2.28,2.28,0,0,1-.78,1.7,2.83,2.83,0,0,1-1.89.7H2.67a2.83,2.83,0,0,1-1.89-.7A2.28,2.28,0,0,1,0,21.6V4.8A2.28,2.28,0,0,1,.78,3.1a2.83,2.83,0,0,1,1.89-.7H4V0H6.67V2.4H17.33V0H20V2.4Zm0,19.2V8.4H2.67V21.6ZM8,15.6V18H5.33V15.6Zm5.33,0V18H10.67V15.6Zm5.34,0V18H16V15.6Z" style="fill:#0d7b33"/></svg>