<svg xmlns="http://www.w3.org/2000/svg" width="20" height="20" viewBox="0 0 20 20"><path d="M10,0C7.28,0,6.94,0,5.88.06A7.59,7.59,0,0,0,3.45.52,5,5,0,0,0,1.68,1.68,5,5,0,0,0,.52,3.45,7.59,7.59,0,0,0,.06,5.88C0,6.94,0,7.28,0,10s0,3.06.06,4.12a7.59,7.59,0,0,0,.46,2.43,5,5,0,0,0,1.16,1.77,5,5,0,0,0,1.77,1.16,7.59,7.59,0,0,0,2.43.46C6.94,20,7.28,20,10,20s3.06,0,4.12-.06a7.59,7.59,0,0,0,2.43-.46,5.19,5.19,0,0,0,2.93-2.93,7.59,7.59,0,0,0,.46-2.43c0-1.06.06-1.4.06-4.12s0-3.06-.06-4.12a7.59,7.59,0,0,0-.46-2.43,5,5,0,0,0-1.16-1.77A5,5,0,0,0,16.55.52,7.59,7.59,0,0,0,14.12.06C13.06,0,12.72,0,10,0Zm0,1.8c2.67,0,3,0,4,.06a5.61,5.61,0,0,1,1.86.34,3.33,3.33,0,0,1,1.9,1.9A5.61,5.61,0,0,1,18.14,6c.05,1,.06,1.37.06,4s0,3-.06,4a5.89,5.89,0,0,1-.34,1.86,3.14,3.14,0,0,1-.75,1.15,3.27,3.27,0,0,1-1.15.75,5.61,5.61,0,0,1-1.86.34c-1,.05-1.37.06-4,.06s-3,0-4-.06A5.89,5.89,0,0,1,4.1,17.8,3.14,3.14,0,0,1,3,17.05,3.14,3.14,0,0,1,2.2,15.9,5.61,5.61,0,0,1,1.86,14c-.05-1-.06-1.37-.06-4s0-3,.06-4A5.61,5.61,0,0,1,2.2,4.1,3.33,3.33,0,0,1,4.1,2.2,5.61,5.61,0,0,1,6,1.86C7,1.81,7.33,1.8,10,1.8Zm0,11.53a3.31,3.31,0,1,1,2.36-1A3.37,3.37,0,0,1,10,13.33Zm0-8.47a5.18,5.18,0,0,0-2,.4A5.13,5.13,0,0,0,5.26,8a5.05,5.05,0,0,0,0,3.94A5.13,5.13,0,0,0,8,14.74a5.14,5.14,0,1,0,2-9.88Zm6.54-.2a1.18,1.18,0,0,1-.09.46,1.16,1.16,0,0,1-.26.39,1.27,1.27,0,0,1-.39.26,1.22,1.22,0,0,1-.46.09,1.18,1.18,0,0,1-.46-.09,1.2,1.2,0,0,1-.65-.65,1.21,1.21,0,0,1,.26-1.31,1.21,1.21,0,0,1,.85-.35,1.2,1.2,0,0,1,1.2,1.2Z"/></svg>