<svg xmlns="http://www.w3.org/2000/svg" viewBox="0 0 66 64"><path d="M42,64l-.47-.09C32,61.37,18,50.56,18,40.79V5.92L42,0,66,5.92V40.79c0,9.77-14,20.58-23.53,23.12ZM21.76,8.83v32c0,7,11.49,16.73,20.24,19.36,8.85-2.63,20.24-12.41,20.24-19.36v-32L42,3.85Z" style="opacity:0.5;isolation:isolate"/><path d="M4.3,24.31c6.51-.36,20.44.09,24.05,4.76S39,48.64,42.09,55.5c-3-2-11.77-5.2-22.76-2.6Z"/><path d="M31.79,53.77a58.46,58.46,0,0,0-14.61,2.6l-15-29H4.3L18,54.64A37,37,0,0,1,31.79,53.77Z"/><path d="M2.58,31.24,0,32.11,15.46,62c4.87-2.09,16.24-6.15,22.77-5.63-2.94-1-11.34-2.08-21.48,1.73Z"/><path d="M64,36.44c-3.65,2-12.37,8-18,15.6A35.26,35.26,0,0,1,60.13,35.57L46.39,7.85l2.15-1.3Z"/><path d="M47.68,45.54c3.43-4.55,7.3-8.88,11-10.62L43.38,5.68,42.09,7,56.27,34.27C52.62,37.31,50.68,39.69,47.68,45.54Z"/><path d="M39.52,6.11c-3.15,3.4-9.54,12.57-9.88,22.1L43.38,54.64c.86-4.77,4.3-15.51,11.17-20.37Z"/></svg>