<svg xmlns="http://www.w3.org/2000/svg" width="18" height="18" viewBox="0 0 18 18"><path d="M15.57,7.55h0a5.51,5.51,0,0,0-5-5.18l-.18,0a1.84,1.84,0,0,0-.41,0,.7.7,0,0,0-.76.61.7.7,0,0,0,.11.56,1.12,1.12,0,0,0,.78.33l.21,0c2.47.54,3.3,1.38,3.71,3.77,0,.06,0,.13,0,.21,0,.28.05.87.71.87H15c.61-.09.59-.63.59-.89a.59.59,0,0,1,0-.19Z"/><path d="M16.31,13.06l-.26-.19c-.44-.35-.91-.67-1.37-1l-.28-.19a2.88,2.88,0,0,0-1.61-.59,2.08,2.08,0,0,0-1.73,1.06.91.91,0,0,1-.79.47,1.51,1.51,0,0,1-.63-.16,7.51,7.51,0,0,1-4-3.79A1.22,1.22,0,0,1,6,6.91a1.81,1.81,0,0,0,1-1.58C7,4.34,4.75,1.34,3.8,1A1.94,1.94,0,0,0,2.54,1,3.64,3.64,0,0,0,.27,2.82a3.28,3.28,0,0,0,0,2.72,22.06,22.06,0,0,0,4.95,7.34,24.21,24.21,0,0,0,7.51,4.86,3.94,3.94,0,0,0,.75.21l.17,0h.09a4.26,4.26,0,0,0,3.54-2.62C17.78,14.16,17,13.55,16.31,13.06Z"/><path d="M18,8.1V7.91A8.15,8.15,0,0,0,10.24,0H9.78A.73.73,0,0,0,9,.74c0,.63.59.67.9.7h.2c4,.61,5.92,2.48,6.44,6.47a1.62,1.62,0,0,1,0,.23c0,.32,0,1,.73,1h0a.72.72,0,0,0,.53-.2A1,1,0,0,0,18,8.1Z"/><path d="M10.47,4.67a.86.86,0,0,0-.89.51.62.62,0,0,0,0,.58.92.92,0,0,0,.69.35,1.59,1.59,0,0,1,1.49,1.57.75.75,0,0,0,.72.73h.09c.46-.05.68-.38.66-1a2.78,2.78,0,0,0-.89-1.89A2.71,2.71,0,0,0,10.47,4.67Z"/></svg>