<svg xmlns="http://www.w3.org/2000/svg" width="20" height="20" viewBox="0 0 20 20"><path d="M10.63,18.75a9.33,9.33,0,0,1-4.56-1.17L0,20l2.42-6.07A9.41,9.41,0,0,1,2,5.73a9.24,9.24,0,0,1,5-5,9.35,9.35,0,0,1,7.29,0,9.24,9.24,0,0,1,5,5,9.35,9.35,0,0,1,0,7.29,9.24,9.24,0,0,1-5,5A9.22,9.22,0,0,1,10.63,18.75Zm3.12-7.5H12.5l-.7.63a5.52,5.52,0,0,1-2.16-1.52A5.37,5.37,0,0,1,8.13,8.2l.62-.7V6.25a1.17,1.17,0,0,0-.23-.66A1.46,1.46,0,0,0,8,5.11c-.19-.1-.32-.11-.4,0L6.68,6c-.51.5-.58,1.29-.22,2.37a8,8,0,0,0,2.05,3.12,8,8,0,0,0,3.12,2c1.08.36,1.87.29,2.37-.22l.92-.92c.08-.08.07-.21,0-.4a1.46,1.46,0,0,0-.48-.52A1.17,1.17,0,0,0,13.75,11.25Z"/></svg>